<?xml version="1.0" encoding="UTF-8"?>
<svg width="800px" height="800px" viewBox="0 0 800 800" version="1.1" xmlns="http://www.w3.org/2000/svg" xmlns:xlink="http://www.w3.org/1999/xlink">
    <title>LinkedIn Icon</title>
    <g id="Artboard" stroke="none" stroke-width="35" fill="none" fill-rule="evenodd" stroke-linecap="round" stroke-linejoin="round">
        <g id="Linkedin" transform="translate(25.000000, 56.000000)" stroke="#5e3c0a" stroke-width="35">
            <polygon id="Shape" points="13.475 224.29879 165.825 224.29879 165.825 684.84879 13.475 684.84879"></polygon>
            <path d="M558.9875,209.06129 C492.1875,209.06129 452.35,233.67379 410.1625,287.57379 L410.1625,224.29879 L257.8125,224.29879 L257.8125,684.84879 L411.325,684.84879 L411.325,435.23629 C411.325,382.49879 438.275,330.93629 499.2125,330.93629 C560.15,330.93629 596.475,382.49879 596.475,434.06129 L596.475,684.84879 L750,684.84879 L750,423.52379 C750,241.87379 626.95,209.06129 558.9875,209.06129 Z" id="Shape"></path>
            <path d="M90.2375,0.473790323 C39.85,0.473790323 0,36.7987903 0,81.3362903 C0,125.87379 39.85,162.19879 90.2375,162.19879 C140.625,162.19879 180.475,125.87379 180.475,81.3362903 C180.475,36.7987903 140.625,0.473790323 90.2375,0.473790323 Z" id="Shape"></path>
        </g>
    </g>
</svg>